<svg xmlns="http://www.w3.org/2000/svg" width="1080" height="1080" version="1.0" viewBox="0 0 810 810"><defs><clipPath id="a"><path d="M38.129 38.129h733.5V771h-733.5Zm0 0"/></clipPath></defs><g clip-path="url(#a)"><path d="M593.793 38.488c-95.395-.633-339.809 0-387.266-.316-8.703-.317-19.777 1.105-30.375 2.531-81.156 11.703-140.48 87.145-137.789 167.809.95 54.09-1.425 304.62.633 408.37 4.586 81.298 71.98 148.513 153.45 152.942 101.406 1.899 334.585-.156 389.163.637 106.153 2.691 191.891-82.719 189.36-189.164-.157-39.856.16-252.266 0-337.04C778.41 134.81 705.793 44.024 594.266 38.329ZM130.117 578.61c-1.11-19.136-.793-39.855 19.457-47.765 15.82-6.324 35.278-8.067 52.84-9.649 57.11-5.375 86.848 11.547 83.211 71.016-.477 15.344-2.375 32.266-4.906 46.816-1.739 8.856-3.48 17.082-7.278 24.04-8.859 17.242-31.953 16.609-48.882 15.343-52.364-3.164-93.493-47.293-94.442-99.324Zm547.992 5.063c-5.218 58.52-52.363 96.953-110.422 94.894-30.054.16-88.273 0-116.117.16-13.601.317-30.53.157-32.902-16.921-1.426-11.23 7.75-23.57 14.555-33.215 98.714-130.012 177.02-329.61 170.058-395.406-.312-10.91-9.172-21.825-19.297-24.829-66.129-11.707-248.687 43.02-381.414 129.215-14.71 8.86-31.007 23.727-46.191 28.47-9.652 3.163-21.2-1.106-24.363-11.071-2.215-6.324-1.899-13.762-2.059-24.04v-73.702c.16-15.344-.633-26.258 1.898-41.122 5.856-38.75 34.645-71.808 72.774-81.613 9.648-2.687 18.98-4.113 28.156-4.27 85.426-.16 292.98 0 337.117 0 53.157-1.581 99.825 34.16 107.258 88.094 1.266 7.594 1.426 12.973 1.426 20.09v62.156c-.316 79.555.789 207.665-.477 282.95ZM514.691 328.555c0 24.992-20.246 45.078-45.086 45.078-24.992 0-45.085-20.246-45.085-45.078 0-24.989 20.25-45.075 45.085-45.075 24.84-.16 45.086 20.086 45.086 45.075Zm0 0"/></g></svg>