<svg xmlns="http://www.w3.org/2000/svg" width="1080" height="1080" version="1.0" viewBox="0 0 810 810"><defs><clipPath id="a"><path d="M38.129 38.129h733.5V771h-733.5Zm0 0"/></clipPath></defs><g clip-path="url(#a)"><path fill="#fff" d="M593.613 38.488c-95.363-.633-339.699 0-387.14-.316-8.7-.317-19.77 1.105-30.364 2.531-81.132 11.7-140.437 87.117-137.746 167.754.95 54.074-1.425 304.523.633 408.242 4.586 81.27 71.957 148.465 153.402 152.89 101.372 1.9 334.477-.155 389.04.641 106.117 2.688 191.828-82.695 189.296-189.105-.156-39.844.16-252.188 0-336.934 7.442-109.414-65.152-200.168-176.644-205.863Zm-463.527 539.95c-1.106-19.133-.79-39.844 19.453-47.75 15.816-6.325 35.266-8.063 52.82-9.645 57.09-5.375 86.825 11.543 83.188 70.992-.477 15.336-2.375 32.254-4.906 46.8-1.739 8.856-3.477 17.075-7.274 24.032-8.855 17.235-31.945 16.602-48.867 15.34-52.348-3.164-93.465-47.277-94.414-99.297Zm547.82 5.058c-5.218 58.5-52.347 96.922-110.386 94.867-30.047.157-88.247 0-116.079.157-13.601.316-30.523.16-32.894-16.915-1.426-11.226 7.746-23.562 14.547-33.207 98.683-129.964 176.969-329.5 170.008-395.277-.317-10.906-9.172-21.816-19.293-24.82-66.106-11.703-248.606 43.004-381.29 129.176-14.707 8.855-31 23.714-46.18 28.46-9.648 3.16-21.19-1.109-24.355-11.07-2.214-6.324-1.898-13.754-2.054-24.031v-73.68c.156-15.336-.633-26.246 1.898-41.11 5.852-38.737 34.633-71.78 72.746-81.585 9.645-2.688 18.977-4.11 28.149-4.27 85.398-.156 292.886 0 337.011 0 53.137-1.582 99.79 34.153 107.223 88.07 1.266 7.59 1.422 12.966 1.422 20.079v62.137c-.317 79.53.793 207.601-.473 282.863ZM514.54 328.465c0 24.98-20.242 45.058-45.07 45.058-24.989 0-45.07-20.238-45.07-45.058 0-24.985 20.242-45.063 45.07-45.063 24.828-.16 45.07 20.078 45.07 45.063Zm0 0"/></g></svg>