<svg width="476" height="83" viewBox="0 0 476 83" fill="none" xmlns="http://www.w3.org/2000/svg">
<path d="M178.806 66.8811V60.6857H178.548C177 63.2681 174.993 65.1289 172.527 66.2761C170.062 67.4234 167.538 67.995 164.959 67.995C161.692 67.995 159.01 67.5654 156.915 66.706C154.821 65.8465 153.173 64.6283 151.967 63.0512C150.762 61.4741 149.915 59.5549 149.431 57.2895C148.943 55.024 148.701 52.5168 148.701 49.7631V22.407H160.916V47.527C160.916 51.1982 161.488 53.9352 162.635 55.7417C163.783 57.5482 165.819 58.4535 168.743 58.4535C172.068 58.4535 174.476 57.4647 175.969 55.4873C177.459 53.5097 178.205 50.2555 178.205 45.7246V22.4112H190.421V66.8853H178.806V66.8811Z" fill="white"/>
<path d="M209.771 5.46069V66.8818H197.555V5.46069H209.771Z" fill="white"/>
<path d="M229.472 5.46069V66.8818H217.256V5.46069H229.472Z" fill="white"/>
<path d="M248.22 51.7407C248.966 53.1761 249.955 54.3359 251.186 55.2244C252.421 56.1132 253.864 56.7724 255.529 57.202C257.194 57.6318 258.913 57.8487 260.69 57.8487C261.896 57.8487 263.185 57.7486 264.561 57.5483C265.938 57.3481 267.227 56.96 268.433 56.3884C269.639 55.8168 270.64 55.0284 271.445 54.0229C272.247 53.0217 272.651 51.7451 272.651 50.1971C272.651 48.5325 272.121 47.1849 271.062 46.1544C270.002 45.1239 268.608 44.2604 266.889 43.5721C265.171 42.8835 263.218 42.2828 261.04 41.7655C258.858 41.2482 256.655 40.6766 254.415 40.0465C252.12 39.4749 249.884 38.7698 247.706 37.9397C245.524 37.1094 243.576 36.0331 241.857 34.7148C240.138 33.3962 238.745 31.7484 237.685 29.7667C236.626 27.7891 236.096 25.3943 236.096 22.5823C236.096 19.4283 236.767 16.6914 238.119 14.3676C239.467 12.0437 241.231 10.1079 243.409 8.56006C245.587 7.01221 248.053 5.86491 250.806 5.11811C253.56 4.37548 256.313 4 259.063 4C262.275 4 265.354 4.3588 268.312 5.0764C271.266 5.79399 273.89 6.95382 276.185 8.56006C278.48 10.1663 280.298 12.2148 281.646 14.7097C282.994 17.2046 283.669 20.2293 283.669 23.7839H270.594C270.478 21.9482 270.089 20.4296 269.434 19.2238C268.775 18.0181 267.899 17.0752 266.81 16.3868C265.721 15.6985 264.474 15.2103 263.068 14.9224C261.662 14.6346 260.127 14.4927 258.466 14.4927C257.377 14.4927 256.284 14.6095 255.199 14.8348C254.111 15.0643 253.122 15.4648 252.233 16.0406C251.344 16.6163 250.614 17.3297 250.039 18.1892C249.463 19.0486 249.179 20.1375 249.179 21.4559C249.179 22.6616 249.409 23.6379 249.868 24.3805C250.326 25.1273 251.228 25.8157 252.579 26.4457C253.927 27.0758 255.792 27.7057 258.17 28.3398C260.548 28.9698 263.66 29.7749 267.503 30.747C268.65 30.9764 270.24 31.3937 272.276 31.9946C274.312 32.5952 276.331 33.559 278.342 34.8774C280.349 36.1957 282.084 37.9605 283.544 40.1676C285.005 42.3746 285.739 45.1991 285.739 48.6411C285.739 51.4529 285.192 54.0605 284.103 56.4679C283.015 58.8751 281.396 60.9568 279.243 62.705C277.094 64.4531 274.424 65.8175 271.245 66.7896C268.066 67.7616 264.378 68.2496 260.189 68.2496C256.806 68.2496 253.522 67.8324 250.339 67.0023C247.156 66.172 244.344 64.8662 241.907 63.0888C239.471 61.3116 237.535 59.0461 236.1 56.2925C234.665 53.539 233.976 50.2722 234.035 46.4883H247.11C247.106 48.5575 247.477 50.3097 248.22 51.7407Z" fill="white"/>
<path d="M301.555 22.4071V28.0854H301.727C303.216 25.678 305.11 23.9299 307.405 22.8368C309.699 21.748 312.223 21.2014 314.973 21.2014C318.469 21.2014 321.482 21.8606 324.006 23.179C326.529 24.4973 328.62 26.2454 330.285 28.4275C331.949 30.6094 333.179 33.1459 333.985 36.0413C334.787 38.9368 335.19 41.9657 335.19 45.1157C335.19 48.0986 334.789 50.9649 333.985 53.7183C333.179 56.472 331.961 58.9085 330.33 61.032C328.695 63.1557 326.66 64.8454 324.223 66.1095C321.787 67.3694 318.931 68.0035 315.661 68.0035C312.908 68.0035 310.371 67.4445 308.047 66.3263C305.723 65.2084 303.817 63.5603 302.327 61.3782H302.156V82.4555H289.94V22.4071H301.555ZM317.426 57.6777C318.773 56.8766 319.863 55.8294 320.692 54.5361C321.523 53.2471 322.112 51.741 322.458 50.0219C322.799 48.3031 322.975 46.5508 322.975 44.7736C322.975 42.9961 322.787 41.2482 322.416 39.525C322.041 37.8062 321.427 36.2708 320.568 34.9234C319.707 33.5758 318.601 32.4869 317.255 31.6566C315.907 30.8265 314.259 30.4092 312.307 30.4092C310.3 30.4092 308.623 30.8265 307.275 31.6566C305.928 32.4869 304.839 33.5632 304.009 34.8815C303.178 36.2 302.59 37.7185 302.244 39.4417C301.902 41.1605 301.727 42.9421 301.727 44.7736C301.727 46.5508 301.91 48.299 302.286 50.0219C302.657 51.741 303.262 53.2471 304.092 54.5361C304.922 55.8253 306.028 56.8725 307.405 57.6777C308.781 58.4828 310.442 58.8835 312.394 58.8835C314.401 58.8792 316.078 58.4787 317.426 57.6777Z" fill="white"/>
<path d="M339.49 36.083C339.659 33.2169 340.378 30.8347 341.642 28.9448C342.902 27.0506 344.507 25.532 346.46 24.3847C348.409 23.2374 350.603 22.4196 353.039 21.9315C355.476 21.4434 357.928 21.2014 360.394 21.2014C362.632 21.2014 364.896 21.3599 367.191 21.6728C369.486 21.9899 371.576 22.6074 373.47 23.5211C375.364 24.4389 376.912 25.7156 378.114 27.351C379.314 28.9865 379.921 31.1519 379.921 33.8469V56.9852C379.921 58.9919 380.033 60.9152 380.267 62.7467C380.496 64.5825 380.896 65.9592 381.471 66.877H369.08C368.851 66.1887 368.663 65.4877 368.521 64.7703C368.379 64.0526 368.276 63.3226 368.221 62.5756C366.273 64.5825 363.978 65.9885 361.342 66.7896C358.704 67.5906 356.009 67.9952 353.257 67.9952C351.132 67.9952 349.155 67.7365 347.319 67.2192C345.485 66.7019 343.877 65.9008 342.501 64.812C341.125 63.7231 340.048 62.3462 339.277 60.6816C338.5 59.0212 338.116 57.0394 338.116 54.7447C338.116 52.2207 338.558 50.1431 339.451 48.5076C340.339 46.8721 341.486 45.5705 342.892 44.5941C344.298 43.622 345.906 42.8878 347.71 42.3996C349.517 41.9114 351.338 41.5276 353.172 41.2398C355.009 40.9519 356.815 40.7225 358.592 40.5514C360.369 40.3803 361.947 40.1216 363.323 39.7753C364.7 39.4291 365.79 38.9285 366.591 38.2692C367.39 37.6102 367.766 36.6505 367.709 35.3864C367.709 34.0681 367.496 33.0209 367.06 32.2449C366.632 31.4688 366.055 30.8681 365.343 30.4383C364.624 30.0087 363.795 29.7206 362.847 29.5789C361.901 29.4372 360.882 29.3662 359.794 29.3662C357.385 29.3662 355.492 29.8835 354.115 30.9139C352.739 31.9444 351.933 33.6676 351.709 36.0748H339.49V36.083ZM367.704 45.1157C367.186 45.5746 366.545 45.9334 365.769 46.192C364.993 46.4507 364.161 46.6635 363.273 46.8387C362.384 47.0097 361.45 47.1558 360.479 47.2685C359.501 47.3853 358.53 47.527 357.553 47.6981C356.637 47.8691 355.73 48.0986 354.841 48.3864C353.953 48.6745 353.177 49.0624 352.517 49.5463C351.858 50.0345 351.329 50.6519 350.928 51.3945C350.527 52.1415 350.328 53.0884 350.328 54.2315C350.328 55.3204 350.527 56.2384 350.928 56.9852C351.329 57.7319 351.876 58.3202 352.563 58.75C353.252 59.1796 354.054 59.4801 354.972 59.6552C355.888 59.8263 356.831 59.914 357.807 59.914C360.216 59.914 362.08 59.5135 363.399 58.7081C364.718 57.9071 365.693 56.9435 366.323 55.8253C366.953 54.7071 367.342 53.5766 367.482 52.4293C367.624 51.2818 367.695 50.364 367.695 49.6757V45.1157H367.704Z" fill="white"/>
<path d="M408.136 30.4092C406.188 30.4092 404.553 30.8555 403.234 31.7443C401.915 32.6328 400.838 33.7803 400.007 35.1861C399.178 36.5921 398.59 38.1398 398.244 39.8296C397.898 41.5235 397.726 43.2006 397.726 44.8611C397.726 46.4675 397.898 48.1029 398.244 49.7634C398.585 51.4279 399.148 52.934 399.92 54.2817C400.696 55.6293 401.741 56.7349 403.062 57.5943C404.381 58.4537 405.986 58.8835 407.88 58.8835C410.807 58.8835 413.055 58.0658 414.635 56.4303C416.213 54.7948 417.202 52.6045 417.601 49.8508H429.387C428.583 55.7584 426.291 60.2602 422.504 63.3558C418.721 66.4516 413.873 67.9993 407.965 67.9993C404.64 67.9993 401.585 67.4404 398.803 66.3222C396.02 65.204 393.655 63.6436 391.706 61.6328C389.757 59.6262 388.235 57.2313 387.147 54.4486C386.057 51.6659 385.51 48.6118 385.51 45.2868C385.51 41.8447 386.011 38.6489 387.016 35.6951C388.017 32.7413 389.494 30.188 391.447 28.0394C393.396 25.8908 395.778 24.2095 398.585 23.0079C401.393 21.8022 404.605 21.2014 408.219 21.2014C410.855 21.2014 413.392 21.5435 415.833 22.2319C418.269 22.9203 420.447 23.9675 422.371 25.3735C424.29 26.7794 425.854 28.5276 427.061 30.622C428.265 32.7163 428.954 35.1945 429.126 38.0606H417.168C416.362 32.9582 413.351 30.4092 408.136 30.4092Z" fill="white"/>
<path d="M446.844 56.2136C448.68 57.9908 451.316 58.8796 454.758 58.8796C457.224 58.8796 459.347 58.262 461.126 57.0314C462.903 55.8005 463.991 54.4946 464.392 53.1178H475.143C473.426 58.4497 470.783 62.2671 467.229 64.5577C463.675 66.8522 459.372 67.9995 454.325 67.9995C450.824 67.9995 447.671 67.4405 444.863 66.3223C442.051 65.2044 439.672 63.6106 437.725 61.5496C435.777 59.4843 434.27 57.0188 433.21 54.1524C432.149 51.2863 431.62 48.1322 431.62 44.6904C431.62 41.3652 432.163 38.2696 433.255 35.3992C434.345 32.5329 435.893 30.0506 437.899 27.9603C439.905 25.866 442.301 24.218 445.083 23.0123C447.868 21.8066 450.945 21.2058 454.334 21.2058C458.117 21.2058 461.417 21.9359 464.225 23.4003C467.032 24.8647 469.345 26.8297 471.152 29.2912C472.958 31.757 474.264 34.5688 475.065 37.723C475.864 40.877 476.153 44.1729 475.924 47.6149H443.837C444.007 51.5701 445.01 54.4362 446.844 56.2136ZM460.65 32.8166C459.184 31.2104 456.965 30.4094 453.984 30.4094C452.035 30.4094 450.412 30.7389 449.122 31.3982C447.833 32.0572 446.798 32.875 446.026 33.8514C445.25 34.8276 444.707 35.8581 444.391 36.947C444.073 38.0358 443.885 39.0123 443.833 39.8717H463.705C463.132 36.7718 462.113 34.423 460.65 32.8166Z" fill="white"/>
<path d="M140.825 5.61914V66.9818H127.332L107.523 35.0989L98.1363 19.825L89.4042 5.61914H102.408L128.017 46.7849H128.192V5.61914H140.825Z" fill="white"/>
<path d="M89 19.2986L101.633 39.8502V66.981H89V19.2986Z" fill="white"/>
<path d="M55.3113 0.0359226C45.8158 -0.0270516 21.4866 0.0359206 16.7625 0.00443356C15.8964 -0.0270535 14.7941 0.114639 13.7391 0.256331C5.66083 1.42135 -0.244321 8.93102 0.0233789 16.9602C0.117861 22.3445 -0.118345 47.2823 0.0863662 57.61C0.543031 65.7022 7.25128 72.3932 15.361 72.834C25.4549 73.023 48.6661 72.8183 54.0988 72.897C64.6651 73.1647 73.2 64.6631 72.948 54.0677C72.9323 50.1004 72.9638 28.9568 72.948 20.5183C73.6881 9.62374 66.4602 0.586945 55.3586 0.0201781L55.3113 0.0359226ZM9.15668 53.8001C9.04645 51.8951 9.07794 49.8327 11.0936 49.0456C12.6683 48.4158 14.6052 48.2426 16.3531 48.0852C22.0378 47.5499 24.9982 49.2345 24.636 55.154C24.5888 56.6812 24.3998 58.3657 24.1479 59.8141C23.9747 60.6958 23.8014 61.5144 23.4235 62.2071C22.5417 63.9232 20.2426 63.8602 18.5577 63.7343C13.3454 63.4194 9.25116 59.027 9.15668 53.8473V53.8001ZM63.7045 54.3039C63.1849 60.129 58.4922 63.9547 52.7131 63.75C49.7211 63.7658 43.9262 63.75 41.1547 63.7658C39.8005 63.7972 38.1155 63.7815 37.8793 62.0812C37.7376 60.9634 38.6509 59.7354 39.328 58.7751C49.1542 45.8339 56.949 25.9655 56.2561 19.4162C56.2246 18.3299 55.3428 17.2436 54.335 16.9445C47.7527 15.7795 29.5806 21.2267 16.3688 29.807C14.9044 30.6886 13.2824 32.1685 11.7707 32.6408C10.8101 32.9557 9.66058 32.5306 9.34564 31.5387C9.12518 30.909 9.15667 30.1691 9.14093 29.1457C9.14093 26.9731 9.14093 23.9818 9.14093 21.8092C9.15667 20.2821 9.07794 19.1958 9.32989 17.7159C9.91254 13.8587 12.7785 10.5683 16.5735 9.59225C17.5341 9.32461 18.4632 9.18292 19.3765 9.16717C27.8799 9.15143 48.5401 9.16717 52.9335 9.16717C58.2245 9.00974 62.8699 12.5678 63.61 17.9363C63.736 18.692 63.7517 19.2273 63.7517 19.9358C63.7517 20.9748 63.7517 23.2262 63.7517 26.123C63.7202 34.042 63.8305 46.7942 63.7045 54.2882V54.3039ZM47.4378 28.9096C47.4378 31.3971 45.4222 33.3965 42.9499 33.3965C40.4618 33.3965 38.462 31.3813 38.462 28.9096C38.462 26.4221 40.4776 24.4227 42.9499 24.4227C45.4222 24.4069 47.4378 26.4221 47.4378 28.9096Z" fill="white"/>
</svg>
