<svg width="473" height="98" viewBox="0 0 473 98" fill="none" xmlns="http://www.w3.org/2000/svg">
<g clip-path="url(#clip0_2_18)">
<path d="M109.55 76.7033V69.146H109.234C107.346 72.296 104.898 74.5658 101.891 75.9653C98.8829 77.3647 95.8041 78.0619 92.6588 78.0619C88.6741 78.0619 85.4018 77.5379 82.847 76.4896C80.2923 75.4412 78.2822 73.9552 76.8113 72.0314C75.3406 70.1077 74.3076 67.7666 73.7171 65.0032C73.1219 62.2398 72.8266 59.1814 72.8266 55.8224V22.453H87.7275V53.0948C87.7275 57.573 88.4247 60.9116 89.8242 63.1152C91.2239 65.3189 93.7074 66.423 97.2747 66.423C101.331 66.423 104.267 65.2169 106.089 62.8049C107.906 60.3926 108.817 56.423 108.817 50.8962V22.4581H123.718V76.7083H109.55V76.7033Z" fill="white"/>
<path d="M147.321 1.78174V76.7041H132.42V1.78174H147.321Z" fill="white"/>
<path d="M171.353 1.78174V76.7041H156.452V1.78174H171.353Z" fill="white"/>
<path d="M194.221 58.2349C195.132 59.9857 196.338 61.4005 197.84 62.4843C199.346 63.5684 201.107 64.3726 203.138 64.8966C205.168 65.4209 207.265 65.6855 209.433 65.6855C210.903 65.6855 212.476 65.5634 214.155 65.319C215.835 65.0748 217.407 64.6014 218.878 63.9042C220.349 63.207 221.57 62.2452 222.553 61.0187C223.53 59.7974 224.023 58.2402 224.023 56.3519C224.023 54.3214 223.377 52.6776 222.085 51.4206C220.792 50.1636 219.092 49.1103 216.995 48.2706C214.898 47.4306 212.517 46.698 209.86 46.0669C207.199 45.4359 204.512 44.7387 201.779 43.97C198.98 43.2728 196.252 42.4127 193.595 41.4002C190.934 40.3873 188.557 39.0745 186.46 37.4664C184.364 35.858 182.664 33.8479 181.371 31.4306C180.079 29.0183 179.432 26.0971 179.432 22.667C179.432 18.8196 180.252 15.4812 181.901 12.6465C183.544 9.81186 185.697 7.4505 188.354 5.56242C191.01 3.67434 194.018 2.27484 197.377 1.36389C200.736 0.458019 204.094 0 207.448 0C211.367 0 215.122 0.437675 218.731 1.31301C222.334 2.18834 225.535 3.60312 228.334 5.56242C231.133 7.52173 233.352 10.0205 234.995 13.0638C236.639 16.1071 237.464 19.7968 237.464 24.1327H221.514C221.372 21.8935 220.899 20.041 220.1 18.5703C219.295 17.0995 218.227 15.9494 216.898 15.1096C215.57 14.2699 214.049 13.6745 212.334 13.3233C210.619 12.9722 208.746 12.7992 206.72 12.7992C205.392 12.7992 204.059 12.9417 202.736 13.2165C201.407 13.4964 200.201 13.9849 199.117 14.6873C198.033 15.3896 197.143 16.2598 196.44 17.3082C195.738 18.3565 195.392 19.6848 195.392 21.2929C195.392 22.7637 195.672 23.9546 196.232 24.8604C196.791 25.7714 197.891 26.6111 199.539 27.3796C201.183 28.1482 203.458 28.9166 206.359 29.6901C209.26 30.4585 213.056 31.4406 217.743 32.6264C219.143 32.9063 221.082 33.4152 223.565 34.1482C226.049 34.8809 228.512 36.0566 230.965 37.6647C233.413 39.2728 235.53 41.4256 237.311 44.1178C239.092 46.81 239.988 50.2552 239.988 54.4538C239.988 57.8838 239.321 61.0645 237.993 64.0011C236.665 66.9374 234.69 69.4768 232.064 71.6092C229.443 73.7416 226.186 75.4059 222.308 76.5917C218.43 77.7774 213.932 78.3727 208.822 78.3727C204.695 78.3727 200.69 77.8637 196.806 76.8511C192.924 75.8383 189.494 74.2456 186.522 72.0774C183.549 69.9095 181.188 67.1461 179.437 63.7871C177.687 60.4285 176.847 56.4435 176.918 51.8279H192.868C192.863 54.3519 193.315 56.4893 194.221 58.2349Z" fill="white"/>
<path d="M259.281 22.4532V29.3796H259.49C261.307 26.4431 263.617 24.3107 266.416 22.9773C269.215 21.6491 272.294 20.9824 275.648 20.9824C279.912 20.9824 283.588 21.7865 286.666 23.3947C289.745 25.0028 292.295 27.1352 294.326 29.7969C296.356 32.4584 297.856 35.5525 298.84 39.0844C299.817 42.6163 300.309 46.311 300.309 50.1534C300.309 53.792 299.82 57.2884 298.84 60.6471C297.856 64.006 296.37 66.9781 294.381 69.5683C292.387 72.1588 289.904 74.22 286.932 75.7619C283.96 77.2988 280.476 78.0723 276.487 78.0723C273.129 78.0723 270.035 77.3904 267.2 76.0264C264.365 74.6628 262.04 72.6524 260.223 69.9907H260.014V95.7011H245.113V22.4532H259.281ZM278.64 65.4767C280.284 64.4996 281.613 63.2222 282.624 61.6445C283.638 60.0722 284.356 58.235 284.778 56.1381C285.194 54.0414 285.409 51.904 285.409 49.7361C285.409 47.568 285.18 45.4358 284.728 43.3339C284.27 41.2372 283.521 39.3643 282.474 37.7207C281.423 36.0768 280.074 34.7486 278.432 33.7358C276.788 32.7232 274.778 32.2143 272.396 32.2143C269.948 32.2143 267.902 32.7232 266.258 33.7358C264.615 34.7486 263.286 36.0615 262.274 37.6696C261.261 39.278 260.543 41.1302 260.121 43.2322C259.704 45.3288 259.49 47.502 259.49 49.7361C259.49 51.904 259.714 54.0364 260.172 56.1381C260.625 58.235 261.363 60.0722 262.375 61.6445C263.388 63.2172 264.737 64.4946 266.416 65.4767C268.096 66.4588 270.121 66.9476 272.503 66.9476C274.951 66.9423 276.996 66.4538 278.64 65.4767Z" fill="white"/>
<path d="M305.554 39.1352C305.76 35.6391 306.638 32.7333 308.18 30.4279C309.716 28.1173 311.674 26.265 314.057 24.8654C316.434 23.4659 319.11 22.4684 322.082 21.873C325.054 21.2776 328.045 20.9824 331.054 20.9824C333.783 20.9824 336.546 21.1758 339.344 21.5575C342.143 21.9443 344.694 22.6975 347.004 23.812C349.314 24.9316 351.202 26.4889 352.669 28.4838C354.132 30.4788 354.872 33.1201 354.872 36.4076V64.632C354.872 67.0798 355.009 69.4259 355.294 71.66C355.574 73.8993 356.062 75.5787 356.764 76.6982H341.649C341.37 75.8586 341.141 75.0035 340.967 74.1284C340.794 73.253 340.668 72.3625 340.601 71.4513C338.224 73.8993 335.425 75.6144 332.21 76.5915C328.992 77.5686 325.705 78.0622 322.347 78.0622C319.755 78.0622 317.344 77.7466 315.104 77.1156C312.867 76.4846 310.906 75.5075 309.227 74.1792C307.548 72.851 306.235 71.1714 305.294 69.1409C304.347 67.1155 303.878 64.6982 303.878 61.899C303.878 58.8202 304.417 56.2859 305.506 54.2909C306.59 52.2959 307.99 50.7082 309.705 49.5171C311.42 48.3314 313.381 47.4358 315.582 46.8403C317.786 46.2448 320.006 45.7766 322.244 45.4255C324.484 45.0744 326.688 44.7945 328.856 44.5858C331.023 44.3772 332.948 44.0615 334.627 43.6392C336.305 43.2168 337.635 42.6062 338.613 41.802C339.587 40.9981 340.046 39.8274 339.976 38.2855C339.976 36.6774 339.716 35.4 339.185 34.4534C338.663 33.5067 337.959 32.774 337.09 32.2497C336.213 31.7257 335.202 31.3743 334.046 31.2014C332.892 31.0285 331.649 30.9419 330.322 30.9419C327.383 30.9419 325.073 31.5729 323.395 32.8299C321.716 34.0869 320.733 36.1889 320.459 39.1252H305.554V39.1352ZM339.97 50.1534C339.339 50.7132 338.557 51.1509 337.61 51.4663C336.663 51.7819 335.649 52.0414 334.565 52.2551C333.481 52.4638 332.342 52.642 331.157 52.7794C329.965 52.9219 328.78 53.0948 327.587 53.3034C326.47 53.5121 325.364 53.792 324.28 54.1431C323.196 54.4945 322.249 54.9677 321.445 55.5579C320.64 56.1535 319.995 56.9065 319.506 57.8124C319.018 58.7236 318.775 59.8786 318.775 61.273C318.775 62.6013 319.018 63.7211 319.506 64.632C319.995 65.5429 320.663 66.2605 321.501 66.7848C322.342 67.3088 323.319 67.6753 324.439 67.889C325.557 68.0976 326.708 68.2046 327.897 68.2046C330.836 68.2046 333.11 67.7161 334.719 66.7337C336.328 65.7566 337.518 64.5812 338.286 63.2172C339.054 61.8532 339.529 60.4742 339.699 59.0747C339.872 57.675 339.959 56.5554 339.959 55.7157V50.1534H339.97Z" fill="white"/>
<path d="M389.29 32.2143C386.913 32.2143 384.919 32.7587 383.31 33.8428C381.701 34.9266 380.388 36.3263 379.374 38.0411C378.363 39.7562 377.645 41.6442 377.223 43.7054C376.801 45.7716 376.592 47.8174 376.592 49.8428C376.592 51.8023 376.801 53.7973 377.223 55.8227C377.639 57.8532 378.327 59.6903 379.268 61.3342C380.215 62.9781 381.489 64.3267 383.1 65.375C384.709 66.4233 386.667 66.9476 388.977 66.9476C392.547 66.9476 395.29 65.9501 397.218 63.9552C399.142 61.9602 400.349 59.2884 400.835 55.9294H415.212C414.232 63.1356 411.436 68.627 406.816 72.403C402.201 76.1792 396.288 78.0672 389.081 78.0672C385.025 78.0672 381.299 77.3854 377.905 76.0214C374.511 74.6574 371.625 72.7541 369.248 70.3013C366.871 67.8535 365.014 64.9323 363.687 61.5378C362.357 58.1434 361.69 54.418 361.69 50.3621C361.69 46.1635 362.301 42.2651 363.528 38.662C364.748 35.059 366.55 31.9444 368.933 29.3235C371.31 26.7026 374.215 24.6517 377.639 23.186C381.064 21.7152 384.983 20.9824 389.391 20.9824C392.606 20.9824 395.701 21.3997 398.679 22.2394C401.651 23.0791 404.307 24.3565 406.654 26.0715C408.994 27.7866 410.902 29.919 412.374 32.4738C413.843 35.0285 414.684 38.0514 414.894 41.5475H400.307C399.324 35.3235 395.651 32.2143 389.29 32.2143Z" fill="white"/>
<path d="M436.506 63.691C438.747 65.8589 441.962 66.9429 446.16 66.9429C449.168 66.9429 451.758 66.1896 453.928 64.6885C456.096 63.1871 457.423 61.594 457.911 59.9147H471.026C468.931 66.4186 465.708 71.0751 461.372 73.8692C457.037 76.6681 451.789 78.0676 445.632 78.0676C441.361 78.0676 437.515 77.3857 434.09 76.0217C430.66 74.6581 427.758 72.7139 425.383 70.1999C423.006 67.6806 421.168 64.6731 419.875 61.1767C418.582 57.6806 417.936 53.8331 417.936 49.6348C417.936 45.5786 418.598 41.8026 419.931 38.3012C421.26 34.8048 423.149 31.7769 425.596 29.2271C428.043 26.6725 430.964 24.6623 434.358 23.1915C437.755 21.7207 441.509 20.9879 445.643 20.9879C450.258 20.9879 454.283 21.8785 457.708 23.6648C461.132 25.4511 463.953 27.8481 466.157 30.8506C468.361 33.8584 469.953 37.2883 470.931 41.1358C471.906 44.9831 472.258 49.0035 471.979 53.2021H432.839C433.045 58.0267 434.269 61.5228 436.506 63.691ZM453.347 35.1509C451.559 33.1917 448.853 32.2146 445.216 32.2146C442.839 32.2146 440.858 32.6165 439.286 33.4207C437.713 34.2246 436.45 35.2221 435.509 36.4132C434.562 37.604 433.9 38.861 433.515 40.1892C433.126 41.5174 432.897 42.7085 432.833 43.7568H457.073C456.375 39.9755 455.132 37.1104 453.347 35.1509Z" fill="white"/>
<path d="M63.2194 1.97461V76.8257H46.7612L22.598 37.9344L11.1474 19.3031L0.49585 1.97461H16.3587L47.5959 52.1893H47.8095V1.97461H63.2194Z" fill="white"/>
<path d="M0.00286865 18.661L15.4128 43.7302V76.8248H0.00286865V18.661Z" fill="white"/>
</g>
<defs>
<clipPath id="clip0_2_18">
<rect width="472.069" height="97.7658" fill="white"/>
</clipPath>
</defs>
</svg>
